<svg xmlns="http://www.w3.org/2000/svg" xmlns:xlink="http://www.w3.org/1999/xlink" xmlns:serif="http://www.serif.com/" viewBox="0 0 48 60" version="1.1" xml:space="preserve" style="" x="0px" y="0px" fill-rule="evenodd" clip-rule="evenodd" stroke-linejoin="round" stroke-miterlimit="2"><g transform="matrix(1,0,0,1,-72,-432)"><g transform="matrix(1.5,0,0,1.5,0,0)"><g><g transform="matrix(0.666667,0,0,0.666667,0,0)"><path d="M74,459L74,443C74,441.343 75.343,440 77,440L115,440C116.657,440 118,441.343 118,443L118,447C118,447.552 117.552,448 117,448C116.448,448 116,447.552 116,447L116,446L97,446L97,466L116,466L116,450C116,449.448 116.448,449 117,449C117.552,449 118,449.448 118,450L118,469C118,470.657 116.657,472 115,472L77,472C75.343,472 74,470.657 74,469L74,465C74,464.448 74.448,464 75,464C75.552,464 76,464.448 76,465L76,466L95,466L95,446L76,446L76,459C76,459.552 75.552,460 75,460C74.448,460 74,459.552 74,459ZM79,442L77,442C76.448,442 76,442.448 76,443L76,444L79,444L79,442ZM83,442L81,442L81,444L83,444L83,442ZM87,442L85,442L85,444L87,444L87,442ZM91,442L89,442L89,444L91,444L91,442ZM95,442L93,442L93,444L95,444L95,442ZM99,442L97,442L97,444L99,444L99,442ZM103,442L101,442L101,444L103,444L103,442ZM107,442L105,442L105,444L107,444L107,442ZM111,442L109,442L109,444L111,444L111,442ZM116,444L116,443C116,442.448 115.552,442 115,442L113,442L113,444L116,444ZM99,468L97,468L97,470L99,470L99,468ZM103,468L101,468L101,470L103,470L103,468ZM107,468L105,468L105,470L107,470L107,468ZM111,468L109,468L109,470L111,470L111,468ZM116,468L113,468L113,470L115,470C115.552,470 116,469.552 116,469L116,468ZM93,470L95,470L95,468L93,468L93,470ZM89,470L91,470L91,468L89,468L89,470ZM85,470L87,470L87,468L85,468L85,470ZM81,470L83,470L83,468L81,468L81,470ZM76,468L76,469C76,469.552 76.448,470 77,470L79,470L79,468L76,468Z"/></g><g transform="matrix(0.666667,0,0,0.666667,42.6667,289.333)"><circle cx="11" cy="28" r="1"/></g></g></g></g><text x="0" y="63" fill="#000000" font-size="5px" font-weight="bold" font-family="'Helvetica Neue', Helvetica, Arial-Unicode, Arial, Sans-serif">Created by Alfan Zulkarnain</text><text x="0" y="68" fill="#000000" font-size="5px" font-weight="bold" font-family="'Helvetica Neue', Helvetica, Arial-Unicode, Arial, Sans-serif">from the Noun Project</text></svg>